<svg width="155" height="59" viewBox="0 0 155 59" fill="none" xmlns="http://www.w3.org/2000/svg">
  <path d="M10.528 10.064C6.912 9.488 3.872 8.816 3.872 6.736C3.872 4.656 6.848 2.96 10.528 2.96C14.208 2.96 17.184 4.656 17.184 6.736C17.184 6.8 17.184 6.896 17.152 6.96H20.288C20.288 3.28 15.904 0.303999 10.528 0.303999C5.152 0.303999 0.768 3.28 0.768 6.96C0.768 10.64 5.216 12.272 10.528 13.168C14.144 13.776 17.184 14.192 17.184 16.048C17.184 17.872 14.208 19.376 10.528 19.376C6.848 19.376 3.872 17.872 3.872 16.048C3.872 15.952 3.904 15.888 3.904 15.824H0.352C0.352 15.888 0.352 15.952 0.352 16.048C0.352 19.6 4.896 22.48 10.528 22.48C16.16 22.48 20.736 19.6 20.736 16.048C20.736 12.496 16.288 10.928 10.528 10.064ZM34.1275 0.751999H29.1995L20.4315 22.032H24.2395L25.9035 18.032H37.4235L39.0875 22.032H42.9275L34.1275 0.751999ZM27.1835 14.928L31.1515 5.264C31.3435 4.816 31.4395 4.368 31.4395 3.888V2.96H31.8875L31.9195 3.984C31.9195 4.432 32.0155 4.88 32.1755 5.296L36.1435 14.928H27.1835ZM53.1828 0.751999H43.9028V22.032H47.4227V3.856H53.1828C57.8548 3.856 61.6308 7.216 61.6308 11.376C61.6308 15.536 58.8468 18.928 55.4228 18.928C53.2148 18.928 51.4228 16.944 51.4228 14.48H47.8708C47.8708 18.64 51.2628 22.032 55.4228 22.032C60.7987 22.032 65.1508 17.264 65.1508 11.376C65.1508 5.52 59.8068 0.751999 53.1828 0.751999ZM83.068 0.751999V7.408H70.204V0.751999H66.684V22.032H70.204V10.512H83.068V22.032H86.62V0.751999H83.068ZM101.284 0.751999H96.3558L87.5877 22.032H91.3958L93.0598 18.032H104.58L106.244 22.032H110.084L101.284 0.751999ZM94.3398 14.928L98.3078 5.264C98.4998 4.816 98.5958 4.368 98.5958 3.888V2.96H99.0438L99.0758 3.984C99.0758 4.432 99.1718 4.88 99.3318 5.296L103.3 14.928H94.3398ZM127.443 16.272C127.443 16.656 127.507 17.04 127.635 17.392L128.115 18.832L127.667 18.992L127.187 17.584C127.059 17.2 126.867 16.848 126.643 16.528L114.579 0.751999H111.059V22.032H114.579V6.512C114.579 6.128 114.515 5.744 114.419 5.392L113.907 3.92L114.355 3.76L114.835 5.2C114.963 5.584 115.155 5.904 115.379 6.224L127.443 22.032H130.995V0.751999H127.443V16.272ZM145.659 0.751999H140.731L131.963 22.032H135.771L137.435 18.032H148.955L150.619 22.032H154.459L145.659 0.751999ZM138.715 14.928L142.683 5.264C142.875 4.816 142.971 4.368 142.971 3.888V2.96H143.419L143.451 3.984C143.451 4.432 143.547 4.88 143.707 5.296L147.675 14.928H138.715ZM10.464 36.752H1.184V58.032H4.704V39.856H10.464C15.136 39.856 18.912 43.216 18.912 47.376C18.912 51.536 16.128 54.928 12.704 54.928C10.496 54.928 8.704 52.944 8.704 50.48H5.152C5.152 54.64 8.544 58.032 12.704 58.032C18.08 58.032 22.432 53.264 22.432 47.376C22.432 41.52 17.088 36.752 10.464 36.752ZM27.4852 58.032V36.752H23.9653V58.032H27.4852ZM42.1275 36.752H37.1995L28.4315 58.032H32.2395L33.9035 54.032H45.4235L47.0875 58.032H50.9275L42.1275 36.752ZM35.1835 50.928L39.1515 41.264C39.3435 40.816 39.4395 40.368 39.4395 39.888V38.96H39.8875L39.9195 39.984C39.9195 40.432 40.0155 40.88 40.1755 41.296L44.1435 50.928H35.1835ZM66.1428 51.312C68.9588 50.224 70.9428 47.472 70.9428 44.272C70.9428 40.112 67.5828 36.752 63.4228 36.752H51.9028V58.032H55.4227V51.824H62.6548C63.2628 55.344 66.3668 58.032 70.0468 58.032V54.928C68.0948 54.928 66.4948 53.36 66.1428 51.312ZM63.4228 48.72H55.4227V39.856H63.4228C65.5988 39.856 67.3908 41.84 67.3908 44.272C67.3908 46.736 65.5988 48.72 63.4228 48.72ZM86.8215 36.688L80.8055 48.816C80.5495 49.296 80.4215 49.84 80.4215 50.384V50.992H79.9415V50.384C79.9415 49.84 79.8135 49.296 79.5575 48.816L73.5415 36.688H70.0855L78.4055 53.424V58.032H81.9575V53.424L90.2775 36.688H86.8215Z" fill="#A174FF"/>
</svg>
